<?xml version="1.0" standalone="no"?>
<!DOCTYPE svg PUBLIC "-//W3C//DTD SVG 20010904//EN"
 "http://www.w3.org/TR/2001/REC-SVG-20010904/DTD/svg10.dtd">
<svg version="1.0" xmlns="http://www.w3.org/2000/svg"
 width="650.000000pt" height="401.000000pt" viewBox="0 0 650.000000 401.000000"
 preserveAspectRatio="xMidYMid meet">

<g transform="translate(0.000000,401.000000) scale(0.100000,-0.100000)"
fill="#000000" stroke="none">
<path d="M6296 3249 c-245 -27 -478 -121 -688 -279 -191 -144 -439 -426 -430
-490 4 -27 8 -24 97 78 129 148 210 226 226 217 7 -5 10 -4 6 2 -8 12 30 49
40 39 11 -11 14 -46 4 -46 -5 0 -12 5 -14 10 -3 6 -4 5 -3 -2 4 -22 21 -18 59
15 36 31 37 32 17 45 -17 10 -21 10 -19 0 4 -36 -1 -41 -21 -23 -20 18 -20 18
0 32 17 12 23 12 44 -2 23 -15 27 -14 110 40 99 65 263 144 360 174 97 30 230
51 322 51 l82 0 7 66 c4 36 5 67 3 69 -10 9 -134 12 -202 4z m-611 -329 c-3
-5 -12 -10 -18 -10 -7 0 -6 4 3 10 19 12 23 12 15 0z"/>
<path d="M5570 2830 c0 -5 5 -10 11 -10 5 0 7 5 4 10 -3 6 -8 10 -11 10 -2 0
-4 -4 -4 -10z"/>
<path d="M6280 2795 c-114 -26 -192 -54 -325 -120 -166 -83 -289 -172 -430
-310 -61 -60 -107 -107 -101 -103 5 4 17 1 27 -8 15 -14 23 -10 85 43 62 53
93 76 215 165 l36 27 -3 -27 c-1 -15 -3 -29 -4 -32 -1 -3 -2 -8 -1 -12 0 -4
-34 -33 -77 -65 -96 -73 -385 -360 -376 -374 4 -7 31 13 68 48 305 295 530
452 778 544 82 30 222 59 287 59 l36 0 0 88 0 87 -75 2 c-41 1 -104 -5 -140
-12z m-23 -101 c-3 -3 -12 -4 -19 -1 -8 3 -5 6 6 6 11 1 17 -2 13 -5z m-262
-94 c-3 -5 -12 -10 -18 -10 -7 0 -6 4 3 10 19 12 23 12 15 0z m10 -50 c-3 -5
-12 -10 -18 -10 -7 0 -6 4 3 10 19 12 23 12 15 0z m-115 -5 c0 -2 -10 -9 -22
-15 -22 -11 -22 -10 -4 4 21 17 26 19 26 11z m80 -10 c0 -2 -13 -11 -30 -20
-38 -19 -40 -11 -2 9 31 17 32 18 32 11z m-80 -19 c-18 -17 -59 -25 -59 -11 0
6 11 9 24 7 12 -2 26 2 30 7 3 6 9 11 13 11 3 0 0 -6 -8 -14z m-70 -37 c0 -5
-4 -9 -8 -9 -5 0 -9 7 -9 15 0 8 4 12 9 9 4 -3 8 -9 8 -15z m50 2 c0 -6 -4
-13 -10 -16 -5 -3 -10 -1 -10 5 0 6 -5 8 -12 4 -7 -4 -8 -3 -4 4 9 14 36 16
36 3z m-54 -42 c-15 -12 -30 -19 -33 -15 -3 3 2 9 11 12 14 5 15 9 4 15 -9 6
-4 9 16 9 l29 0 -27 -21z"/>
<path d="M3132 2420 c-38 -9 -105 -41 -110 -53 -2 -4 -8 -4 -13 -1 -15 9 -107
-55 -168 -117 -94 -95 -189 -230 -341 -484 -182 -305 -302 -468 -413 -557 -41
-33 -53 -49 -53 -69 1 -19 5 -25 17 -22 22 6 139 101 139 113 0 6 5 10 12 10
6 0 3 -9 -7 -20 -17 -18 -14 -25 9 -21 5 1 -13 -22 -39 -51 -41 -46 -75 -74
-170 -142 -37 -26 -5 -30 48 -5 131 61 279 255 523 689 206 368 339 563 392
577 50 12 140 -5 214 -41 95 -46 189 -118 394 -301 205 -183 288 -253 351
-296 l48 -32 -65 69 c-36 38 -69 74 -75 80 -126 137 -223 242 -276 299 -73 77
-95 114 -56 94 12 -7 47 -32 79 -55 42 -33 57 -40 61 -29 4 9 1 12 -9 8 -7 -3
-14 0 -14 6 0 6 5 11 10 11 6 0 2 8 -7 18 -41 42 -62 72 -52 72 6 0 8 9 4 20
-5 15 -2 20 11 20 14 0 14 3 4 15 -11 13 -10 14 6 9 42 -16 113 -72 187 -149
88 -90 207 -263 323 -470 43 -77 97 -167 120 -200 22 -33 51 -80 64 -105 41
-82 93 -152 133 -181 112 -81 266 0 448 234 38 49 69 97 69 105 0 9 -3 12 -8
7 -5 -6 -38 -47 -75 -91 -71 -87 -172 -185 -221 -215 -23 -14 -34 -16 -50 -7
-18 10 -19 9 -8 -4 10 -13 10 -17 -4 -22 -8 -3 -23 -6 -32 -6 -13 0 -12 3 4
15 19 14 19 14 -1 15 -13 0 1 12 37 31 68 37 169 139 173 174 3 29 -4 26 -70
-38 -118 -113 -225 -123 -333 -32 -29 24 -102 149 -102 173 0 5 17 2 38 -8 59
-29 99 -32 119 -12 10 10 37 24 60 30 61 18 233 157 233 189 0 7 4 13 9 13 5
0 11 6 14 13 3 8 -1 14 -8 14 -8 0 -13 -3 -12 -6 1 -3 -1 -7 -6 -8 -4 -2 -42
-31 -85 -65 -104 -83 -168 -111 -257 -111 -38 -1 -86 4 -105 11 -30 10 -38 20
-59 74 -43 111 -157 331 -219 423 -114 170 -279 305 -442 359 -128 42 -295 58
-388 36z m583 -178 c-3 -3 -11 0 -18 7 -9 10 -8 11 6 5 10 -3 15 -9 12 -12z
m51 -34 c16 -18 23 -28 15 -21 -7 6 -19 9 -25 7 -7 -3 -21 5 -32 17 -10 13
-13 19 -6 15 6 -4 12 -2 12 3 0 16 4 14 36 -21z m-941 -27 c3 -5 2 -12 -3 -15
-5 -3 -9 1 -9 9 0 17 3 19 12 6z m1057 -96 c2 3 5 -2 5 -9 0 -12 -7 -11 -29 5
-34 24 -38 36 -5 14 13 -8 26 -13 29 -10z m98 -129 c0 -2 -7 -7 -16 -10 -8 -3
-12 -2 -9 4 6 10 25 14 25 6z m-1397 -131 c-3 -9 -8 -14 -10 -11 -3 3 -2 9 2
15 9 16 15 13 8 -4z m-23 -81 c0 -8 -19 -13 -24 -6 -3 5 1 9 9 9 8 0 15 -2 15
-3z m1547 -56 c-3 -8 -6 -5 -6 6 -1 11 2 17 5 13 3 -3 4 -12 1 -19z m47 -98
c4 -14 -2 -8 -14 14 -11 22 -20 42 -20 45 0 12 28 -36 34 -59z m-1890 -322
c-3 -4 -11 -5 -19 -1 -21 7 -19 12 4 10 11 0 18 -5 15 -9z"/>
<path d="M3740 2210 c0 -5 5 -10 11 -10 5 0 7 5 4 10 -3 6 -8 10 -11 10 -2 0
-4 -4 -4 -10z"/>
<path d="M2747 2268 c-84 -46 -171 -130 -322 -313 -74 -90 -167 -192 -206
-229 -78 -72 -179 -128 -262 -146 -52 -10 -53 -12 -49 -40 4 -26 8 -30 37 -30
35 0 140 33 162 51 7 7 16 10 18 7 3 -3 -6 -11 -19 -18 -14 -7 -28 -20 -31
-29 -5 -13 -4 -14 6 -3 19 18 34 15 18 -5 -13 -15 -12 -15 11 -3 54 29 199
191 305 340 182 258 278 368 371 425 56 35 29 30 -39 -7z"/>
<path d="M1154 2140 c-108 -38 -242 -111 -320 -174 -95 -76 -287 -274 -278
-287 9 -15 24 -10 17 6 -3 9 -1 15 4 13 6 -2 60 45 120 103 123 119 170 155
76 58 -106 -110 -265 -315 -270 -349 -2 -17 -6 -22 117 130 46 58 130 152 186
210 l102 104 68 0 c39 0 92 -8 121 -18 59 -20 152 -77 212 -131 23 -21 41 -34
41 -31 0 4 -17 30 -38 59 -50 68 -55 77 -44 77 6 0 26 -16 47 -37 l36 -36 -7
29 c-4 16 -10 36 -15 45 -9 18 -1 33 25 42 11 5 16 13 12 23 -4 10 -1 14 6 12
25 -7 86 -152 123 -291 35 -132 57 -206 136 -459 37 -115 84 -195 139 -233 60
-41 72 -19 15 28 -30 26 -55 60 -79 110 -37 77 -91 251 -82 265 3 5 -5 42 -18
83 -12 41 -25 91 -29 112 l-6 38 35 -30 c40 -35 65 -41 57 -12 -3 10 -29 35
-58 55 -48 33 -54 42 -60 84 -10 69 -52 207 -82 269 -32 69 -78 122 -120 139
-44 19 -128 16 -189 -6z m311 -209 c2 -11 7 -27 11 -34 5 -9 4 -9 -5 -1 -6 6
-14 24 -17 40 -3 16 -3 26 1 23 3 -4 7 -16 10 -28z m22 -76 c0 -8 -4 -12 -9
-9 -5 3 -6 10 -3 15 9 13 12 11 12 -6z m20 -87 c-3 -8 -6 -5 -6 6 -1 11 2 17
5 13 3 -3 4 -12 1 -19z"/>
<path d="M690 1976 c-120 -45 -294 -158 -322 -211 -11 -19 -11 -19 18 -1 16
11 60 42 99 69 38 28 75 50 82 50 7 0 10 3 8 7 -3 4 12 15 33 24 49 22 140 76
127 75 -5 0 -26 -6 -45 -13z"/>
<path d="M5305 1961 c-3 -5 -2 -12 3 -15 5 -3 9 1 9 9 0 17 -3 19 -12 6z"/>
<path d="M2055 1490 c-3 -6 1 -7 9 -4 18 7 21 14 7 14 -6 0 -13 -4 -16 -10z"/>
<path d="M26 1441 c-20 -22 -32 -81 -17 -81 16 0 50 55 48 78 -2 27 -9 28 -31
3z"/>
<path d="M4418 1443 c6 -2 18 -2 25 0 6 3 1 5 -13 5 -14 0 -19 -2 -12 -5z"/>
<path d="M1640 1365 c0 -5 5 -17 10 -25 5 -8 10 -10 10 -5 0 6 -5 17 -10 25
-5 8 -10 11 -10 5z"/>
<path d="M1660 1315 c0 -11 49 -94 50 -84 0 4 -11 27 -25 50 -14 24 -25 40
-25 34z"/>
<path d="M277 1218 c-19 -24 -60 -79 -92 -123 -32 -44 -65 -86 -74 -93 -9 -7
-16 -16 -16 -20 -1 -13 -24 -47 -25 -35 0 6 5 15 11 19 8 4 7 9 -2 15 -11 7
-11 9 -1 9 7 0 10 5 7 10 -3 6 -1 10 4 10 6 0 11 6 11 13 0 7 15 35 33 62 18
28 43 66 55 85 21 35 21 36 1 36 -12 0 -18 -5 -15 -13 3 -7 0 -12 -5 -10 -6 1
-47 -44 -90 -101 -63 -82 -79 -109 -79 -137 0 -18 4 -36 9 -40 6 -3 6 -18 0
-38 -12 -41 -12 -100 0 -93 16 10 321 466 321 480 0 17 -22 1 -53 -36z"/>
<path d="M2161 1186 c-7 -8 -8 -17 -3 -20 6 -3 15 1 21 8 7 8 8 17 3 20 -6 3
-15 -1 -21 -8z"/>
</g>
</svg>
